<?xml version="1.0" encoding="UTF-8"?>
<!-- Generator: Adobe Illustrator 25.0.0, SVG Export Plug-In . SVG Version: 6.00 Build 0)  -->
<svg version="1.1" id="layer" xmlns="http://www.w3.org/2000/svg" xmlns:xlink="http://www.w3.org/1999/xlink" x="0px" y="0px" width="894.5px" height="503.5px" viewBox="0 0 894.5 503.5" style="enable-background:new 0 0 894.5 503.5;" xml:space="preserve">
<style type="text/css">
	.st0{fill:#888063;}
</style>
<path class="st0" d="M467.7,120.8c-15.8,12.2-32.1,23.9-48.7,35c-2-11.2-3.5-22.4-4.5-33.7l-0.4-7.3l-0.3-3.7v-3.6l-0.1-7.3l0.4-7.1  c0-1.1,0-2.3,0.3-3.6l0.5-3.4c0.3-2.3,0.4-4.7,1.1-6.9c1.6-9.2,4.9-17.8,9.5-25.2c4.5-7.4,10.6-13.7,18.2-17.5  c16.2-8,35.8-3.7,47.2,10.4c5.5,6.6,9.3,14.8,12.1,23.3l1,3.4l0.8,3.3c0.4,2.3,1.1,4.5,1.4,6.9l0.7,6  C493.9,100.4,480.7,110.7,467.7,120.8 M662.2,50.5l-0.8-7.9c-0.4-3-1-6-1.8-8.9c-1.7-6.4-5-12.3-9.6-17.1c-4.9-5-11.3-8.4-18.2-9.6  c-6.7-1.4-13.3-0.4-19.2,1.6c-4.3,1.4-8.5,3.4-12.2,6l-1.6,1.4l-1.7,1.1L585,26.3c-8,6.2-15.9,12.5-23.7,18.9L525,75l-0.6-2.6  l-1-4.1l-1.4-4.1c-3.7-10.8-9.6-21.2-18.4-29.5c-8.7-8.4-19.6-14.1-31.5-16.2l-4.2-0.7l-4.4-0.3c-3-0.3-5.9,0-8.9,0  c-1.4,0-2.9,0.6-4.4,0.7l-4.4,0.8l-4.3,1.1l-2.2,0.7l-2.1,0.8C426,25.7,416,33.5,409,43.1c-6.9,9.7-11,20.8-13.3,31.8  c-0.7,2.7-1,5.5-1.4,8.2l-0.7,4.1l-0.4,4.2l-0.4,8.2v12.3l0.4,4.1l0.7,8.1c1.6,14.4,4,28.7,7.1,42.9c-10.8,6.6-21.9,12.9-33.3,18.5  l-6.6,3.3l-6.9,3.2c-2.2,1.1-4.4,2.2-6.7,3c-2.2,1-4.5,2.1-6.7,2.7c-3.9,1.6-8,2.6-12.2,2.7c-3.7-0.1-6.9-1.1-9.6-2.7  c-6.5-4.8-11.6-11.1-15.1-18.4c-4.4-8.1-7.8-16.7-9.9-25.6c-8.6-35.1-11.1-71.5-7.5-107.5l0.3-1.6l0.3-1.4l0.7-3l1.9-5.5  c0.8-1.5,1.8-2.9,2.7-4.1c1.9-2.6,4.1-4.5,6.9-5.6c3.2-1.3,6.7-1.6,10-0.8c1.8,0.4,3.6,1.1,5.2,1.8l1.2,0.7l0.6,0.4l0.3,0.1l0.4,0.3  l3,2.1c14.6,9.7,28.5,20.2,41.8,31.3l15.2-6.3l0.3-0.3c-15.5-12.8-31-25.9-47.3-38.2l-3.1-2.3l-0.4-0.3l-0.4-0.3l-1-0.7l-2.1-1.4  c-8.7-4.9-18.8-6.5-28.7-4.7C284,8.9,275.4,16,271,25.7c-1.4,2.8-2.5,5.8-3.4,8.7l-1.1,4.4l-0.4,2.2l-0.4,2  c-1.5,7.9-2.3,15.9-2.3,23.9c-1.1,31.2,2.2,62.5,9.9,92.8c2.2,7.9,5.1,15.6,8.5,23c3.4,7.8,8,15,13.7,21.2  c4.1,4.4,9.2,8.6,15.3,11.2c6.2,2.6,13,3.5,19.6,2.6c6.2-0.8,11.8-2.7,16.9-5.2l6.9-3.3l7-3.3c2.3-1.1,4.6-2.2,6.9-3.3l6.9-3.6  c35.9-19.1,70.1-41.2,102.3-66.1c10.3-7.8,20.3-15.8,30.2-23.9v3.3c-0.6,4.9-0.7,9.6-1.4,14.7c-2.6,19.9-5.8,39.8-11.5,58.5  c-4.1,13.8-10,26.9-17.5,39.1c-2.3,3.6-5.1,6.8-8.4,9.6c-1.5,1.1-3.1,2.1-4.7,2.7c-1.5,0.5-2.7,0.7-3.8,0.5c-3.4-0.7-6.6-2.3-9-4.8  l-2.3-2.1l-2.1-2.5l-2.3-3c-8.2-10.1-25.5-6.2-25.9-6c2.9,4.8,6,9.5,9.5,14c3.6,4.7,7.6,9,12.2,12.7c2.3,2.1,5.1,3.7,8.1,5.3  c6.6,3.6,14.4,4.2,21.5,1.7c3.1-1.1,6.1-2.6,8.9-4.5c9.4-7.1,17.3-16.1,23-26.5c5.5-9.9,9.3-20,12.6-30.3  c5.7-17.7,9.6-35.9,11.8-54.4l1-7.8c0.7-5.2,1-10.7,1.4-16c0.3-2.7,0-5.5,0-8.2s0.3-5.5,0-8.2l-0.4-4.8c14.3-11.9,28.5-24,42.9-35.6  c7.9-6.2,15.8-12.3,23.7-18.2c4.1-2.9,8-5.9,12.1-8.6l1.5-1.1l1.4-0.8l2.7-1.5c1.8-0.8,3.6-1.5,5.5-2.1c3.7-0.8,7.4-0.8,10.6,0.1  c3.2,1,5.5,2.7,7.4,5.2s3.3,5.6,4.1,9.3c0.6,4.3,1.1,8.6,1.4,12.9c0.8,38.9-3.5,77.7-12.6,115.6c-0.9,3.4-1.9,6.8-3,10.1l-0.5,1.5  l-0.6,1.4c-1.7,3.8-3.6,7.1-6,9.6s-5.4,4.5-8.6,5.6c-3.4,1.4-7.3,1.8-11.4,1.8c-6.6-0.1-13.1-1.4-19.2-3.8  c-5.9-2.1-11.6-4.5-17.3-7.1c-12.3-5.1-21.9,3.8-23.3,4.9v0.1l13,7.9c9.2,5.3,18.8,9.9,28.8,13.6c5.5,1.7,11,2.9,17,3.3  c5.9,0.4,12.2,0,18.4-1.9c6.2-1.9,12.1-5.5,16.7-10c4.7-4.5,8.2-10,10.6-15.4l1-2.1l0.7-1.9c1.6-3.7,3-7.5,4.1-11.4  c5.9-19.9,9.9-40.3,11.9-61C662.8,92.1,663.7,71.5,662.2,50.5"/>
<path d="M50.4,485.9H21.6v-81.8h28.8c30.7,0,50.4,16,50.4,41c0,19.7-13.3,40.8-50.3,40.8 M51.7,386.7H1.4v116.8h50.5  c43.2,0,71.1-23,71.1-58.7C123,416.7,104.2,386.7,51.7,386.7 M302.4,461.5c0,17.8-14.5,28-39.8,28c-24.7,0-39.8-10.8-39.8-28v-56.2  c0-10.3-8.4-18.6-18.8-18.6h-1.4v74.6c0,27.4,22.9,44.6,59.8,44.6c37.7,0,60-16.6,60-44.6v-74.6h-20V461.5z M463.6,484.1l-35.5-81.8  c-4.1-9.6-13.6-15.6-24-15.6h-4.8L450,503.5h27.1l50.7-116.8h-21.9L463.6,484.1z M630.3,450.5l19.2-44.6l19.5,44.6H630.3z   M636.1,386.7l-50.7,116.8h21.9l16.5-37.7h51.8l9.6,21.9c4.1,9.6,13.6,15.8,24,15.8h4.8l-50.7-116.9L636.1,386.7z M822.4,486.3  v-99.7h-20.3v116.8h92.4v-17.1L822.4,486.3L822.4,486.3z M310.2,320.7c0-11,8.5-19.7,20-19.7c6.9,0,11,1.8,14.8,5.2l-5.2,6.3  c-2.9-2.5-5.5-3.8-9.9-3.8c-6.2,0-11,5.5-11,11.8v0.1c0,6.9,4.8,12.1,11.5,12.1c3,0,5.8-0.7,7.8-2.3v-5.5H330v-7.1h16.5v16.5  c-4.5,3.9-10.2,6.1-16.2,6.2c-11.8,0-20-8.4-20-19.6 M368.5,301.5h17.3c4.8,0,8.6,1.4,11,4c2.2,2.3,3.4,5.4,3.3,8.6  c0,6.3-3.3,10.1-8.1,11.9l9.3,13.6h-9.9l-8.1-12.2h-6.6v12.2h-8.2C368.5,339.6,368.5,301.5,368.5,301.5z M385.2,320  c4.1,0,6.4-2.2,6.4-5.3c0-3.7-2.5-5.5-6.6-5.5h-8.2v11L385.2,320z M416.2,320.7c0-11,8.5-19.7,20.2-19.7c11.8,0,20.1,8.8,20.1,19.5  v0.1c0,10.8-8.5,19.7-20.3,19.7C424.5,340.3,416.2,331.5,416.2,320.7 M447.7,320.7c0-6.6-4.7-12.1-11.5-12.1  c-6.7,0-11.4,5.3-11.4,11.8v0.1c0,6.6,4.8,11.9,11.5,11.9C443.2,332.5,447.7,327.3,447.7,320.7 M472.7,323.3v-21.7h8.5V323  c0,6.3,3,9.5,8.2,9.5c5.1,0,8.2-3.2,8.2-9.2v-21.7h8.2V323c0,11.5-6.4,17.1-16.6,17.1C478.9,340.1,472.7,334.5,472.7,323.3   M526.1,301.5h15.5c9,0,14.5,5.5,14.5,13.2v0.1c0,8.8-6.9,13.4-15.3,13.4h-6.4v11.4h-8.2v-38.1H526.1z M541.1,320.7  c4.1,0,6.6-2.5,6.6-5.8c0-3.8-2.6-5.8-6.9-5.8h-6.4v11.5L541.1,320.7L541.1,320.7z M571.8,301.5h28.7v7.5h-20.3v7.7H598v7.4h-17.8  v8.1h20.6v7.4h-28.9L571.8,301.5L571.8,301.5z"/>
</svg>