<?xml version="1.0" encoding="utf-8"?>
<!-- Generator: Adobe Illustrator 28.2.0, SVG Export Plug-In . SVG Version: 6.00 Build 0)  -->
<svg version="1.1" xmlns="http://www.w3.org/2000/svg" xmlns:xlink="http://www.w3.org/1999/xlink" x="0px" y="0px"
	 viewBox="0 0 2200 2200" style="enable-background:new 0 0 2200 2200;" xml:space="preserve">
<style type="text/css">
	.st0{fill:#1A1A1A;}
	.st1{fill:#121214;}
	.st2{fill:#FFFFFF;}
</style>
<g id="background">
</g>
<g id="objects">
	<rect id="Rectangle_335" y="1363.2" class="st0" width="2200" height="355.8"/>
	<path class="st1" d="M1018,550H696c-16.5,0-30-13.5-30-30V198c0-16.5,13.5-30,30-30h322c16.5,0,30,13.5,30,30v322
		C1048,536.5,1034.5,550,1018,550z"/>
	<path class="st1" d="M1485,550h-322c-16.5,0-30-13.5-30-30V198c0-16.5,13.5-30,30-30h322c16.5,0,30,13.5,30,30v322
		C1515,536.5,1501.5,550,1485,550z"/>
	<path class="st1" d="M1496.7,1001.1h-322c-16.5,0-30-13.5-30-30v-322c0-16.5,13.5-30,30-30h322c16.5,0,30,13.5,30,30v322
		C1526.7,987.6,1513.2,1001.1,1496.7,1001.1z"/>
	<path class="st1" d="M540,994.6H218c-16.5,0-30-13.5-30-30v-322c0-16.5,13.5-30,30-30h322c16.5,0,30,13.5,30,30v322
		C570,981.1,556.5,994.6,540,994.6z"/>
	<g>
		<circle class="st2" cx="308.6" cy="731.1" r="25.6"/>
		<path class="st2" d="M328,901.7h-38.8c-1.1,0-1.9-0.9-1.9-1.9V775.6c0-1.1,0.9-1.9,1.9-1.9H328c1.1,0,1.9,0.9,1.9,1.9v124.1
			C330,900.8,329.1,901.7,328,901.7z"/>
		<path class="st2" d="M475,820.6v72.5c0,4.7-3.8,8.5-8.5,8.5h-25.6c-4.7,0-8.5-3.8-8.5-8.5v-59.7c0-11.8-9.6-21.3-21.3-21.3
			c-11.8,0-21.3,9.6-21.3,21.3v59.7c0,4.7-3.8,8.5-8.5,8.5h-25.6c-4.7,0-8.5-3.8-8.5-8.5V782.2c0-4.7,3.8-8.5,8.5-8.5h25.6
			c4.7,0,8.5,3.8,8.5,8.5v5.5c8.5-11,22.6-18.3,38.4-18.3C451.6,769.4,475,786.5,475,820.6z"/>
	</g>
	<g>
		<path class="st2" d="M910.9,254.8H803.1c-27.8,0-50.3,22.5-50.3,50.3v107.8c0,27.8,22.5,50.3,50.3,50.3h107.8
			c27.8,0,50.3-22.5,50.3-50.3V305.1C961.2,277.3,938.7,254.8,910.9,254.8z M943.2,409.3c0,19.8-16.1,35.9-35.9,35.9H806.7
			c-19.8,0-35.9-16.1-35.9-35.9V308.7c0-19.8,16.1-35.9,35.9-35.9h100.6c19.8,0,35.9,16.1,35.9,35.9V409.3z"/>
		<path class="st2" d="M857,305.1c-29.8,0-53.9,24.1-53.9,53.9c0,29.8,24.1,53.9,53.9,53.9s53.9-24.1,53.9-53.9
			C910.9,329.2,886.8,305.1,857,305.1z M857,394.9c-19.8,0-35.9-16.1-35.9-35.9s16.1-35.9,35.9-35.9s35.9,16.1,35.9,35.9
			S876.8,394.9,857,394.9z"/>
		<circle class="st2" cx="914.5" cy="301.5" r="10.8"/>
	</g>
	<path class="st2" d="M1352.7,340.7l80.4-86h-30.5l-63.1,67.5l-48.3-67.5h-83.5l84.5,118l-84.5,90.4h30.5l67.2-71.9l51.5,71.9h83.5
		L1352.7,340.7z M1250.7,276.9h29.1l117.6,164.2h-29.1L1250.7,276.9z"/>
	<path class="st1" d="M539.2,550h-322c-16.5,0-30-13.5-30-30V198c0-16.5,13.5-30,30-30h322c16.5,0,30,13.5,30,30v322
		C569.2,536.5,555.7,550,539.2,550z"/>
	<path class="st1" d="M1009,995.1H687c-16.5,0-30-13.5-30-30v-322c0-16.5,13.5-30,30-30h322c16.5,0,30,13.5,30,30v322
		C1039,981.6,1025.5,995.1,1009,995.1z"/>
	<path class="st2" d="M447.1,343.6l-3.3,26.6c-0.6,4.4-4.3,7.8-8.8,7.8h-43v111.1c-4.5,0.4-9.1,0.6-13.8,0.6c-10.4,0-20.6-1-30.4-3
		V377.9h-33.1c-3,0-5.5-2.5-5.5-5.5v-33.3c0-3,2.5-5.5,5.5-5.5h33.1v-49.9c0-30.6,24.7-55.4,55.2-55.4h38.6c3,0,5.5,2.5,5.5,5.5
		v33.3c0,3-2.5,5.5-5.5,5.5h-27.6c-12.2,0-22.1,9.9-22.1,22.2v38.8h46.4C443.7,333.6,447.8,338.3,447.1,343.6z"/>
	<path class="st2" d="M297.9,1529.9l-2.6,21.2c-0.4,3.5-3.4,6.2-7,6.2H254v88.6c-3.6,0.3-7.3,0.5-11,0.5c-8.3,0-16.4-0.8-24.2-2.4
		v-86.7h-26.4c-2.4,0-4.4-2-4.4-4.4v-26.5c0-2.4,2-4.4,4.4-4.4h26.4v-39.8c0-24.4,19.7-44.2,44-44.2h30.8c2.4,0,4.4,2,4.4,4.4v26.5
		c0,2.4-2,4.4-4.4,4.4h-22c-9.7,0-17.6,7.9-17.6,17.7v30.9h37C295.2,1522,298.5,1525.7,297.9,1529.9z"/>
	<g>
		<g>
			<path class="st2" d="M910,804.8c-0.2-0.4-0.4-0.8-0.6-1.2c-2.3,1.2-4.4,2.4-6.6,3.4c-2.2,1-4.4,1.9-6.6,2.7
				c-2.3,0.8-4.6,1.4-7,2.1c0,0.2,0,0.3,0,0.5c0.1,0.3,0.2,0.6,0.3,0.9c3.2,8.1,4.6,16.6,4.8,25.3c0.1,7.3-0.9,14.4-3,21.4
				c-3.2,10.5-8.4,19.8-16,27.7c-11.1,11.5-24.8,17.7-40.7,19.1c-1.5,0.1-2.9,0.1-4.5,0.2c0.1-0.4,0.1-0.4,0.1-0.5
				c0.8-0.6,1.7-1.2,2.5-1.9c16.6-12.6,29.7-28.2,39-46.9c7.7-15.6,11.6-32.1,12-49.4c0.2-8.5-0.6-16.9-2-25.2
				c-1.7-9.5-4.3-18.7-7.6-27.7c-0.1-0.3-0.4-1-0.6-1.4c-0.2-1.5-0.3-1.9-0.3-2.2c0-0.3,0-0.7,0-0.8c-0.8-7.8-2.2-15.6-4.4-23.1
				c-2.9-10.3-7.1-20-12.9-29c-4-6.2-8.6-11.9-14.3-16.7c-0.5-0.5-1.1-0.9-1.8-1.4c0,0.4-0.1,0.6,0,0.7c0.4,0.7,0.8,1.5,1.2,2.2
				c9.8,16.9,18.4,34.3,25.7,52.3c2,4.9,3.9,10,5.8,15l0.6,1c0,0.3,0.1,0.8,0.3,2.2c0.1,2.6,0.2,5.3,0.3,7.7
				c0.3,13.7-0.1,27.3-1.5,41c-0.6,6.3-1.4,12.6-2.5,18.8c-1.3,7.8-3,15.6-5.3,23.2c-2.7,9.4-6.2,18.4-10.9,27
				c-4.1,7.6-9.1,14.7-15.4,20.7c-5.8,5.6-12.3,10-19.7,13.1c-0.8,0.3-1.5,0.4-2.4,0.3c-10.1-2-19.2-6.1-27.3-12.5
				c-7-5.5-12.4-12.3-16.7-20.1c-4.5-8.3-7.2-17.2-8.2-26.6c-0.6-5.5-0.4-11.1,0.2-16.6c0.8-6.8,2.5-13.3,5.3-19.5
				c4.1-9.3,10.2-17.2,17.7-23.9c5.8-5.2,12.3-9.3,19.6-12.1c4.7-1.8,9.6-2.9,14.6-3.5c4.4-0.5,8.9-0.5,13.3-0.2
				c5.7,0.4,11.2,1.7,16.5,3.7c0.5,0.2,0.9,0.3,1.6,0.5c0.5-3.7,1.2-7.2,2.3-10.7c1.1-3.4,2.6-6.7,4.1-10c-0.8-0.7-1.7-0.8-2.6-1.1
				c-7.2-2.3-14.6-3.6-22.2-4c-8.1-0.5-16.1,0.1-24.1,1.7c-9.5,1.9-18.4,5.4-26.6,10.5c-7.8,4.9-14.6,11-20.6,18
				c-13.3,15.6-20.3,33.6-21.4,54c-0.3,5.9-0.1,11.7,0.6,17.6c1,8.2,3.1,16.2,6.4,23.8c5.3,12.3,13.1,22.9,23,32
				c7.3,6.7,15.6,11.8,24.9,15.4c8.6,3.3,17.6,5,26.8,5.5c8.5,0.4,17-0.1,25.4-1.8c11.3-2.4,21.7-6.9,31-13.8
				c7.3-5.4,13.4-11.9,18.8-19.1c10.7-14.4,16.5-30.5,17.5-48.4c0.4-7.3,0.1-14.6-1.1-21.8C913.9,816.5,912.3,810.5,910,804.8z"/>
			<path class="st2" d="M951.7,708.2c-1.9-6.9-4.5-13.6-8.1-19.8c-0.5-0.9-1.1-1.7-1.7-2.8c-0.5,0.9-0.9,1.6-1.3,2.3
				c-2.5,4.7-5.6,9-9.4,12.7c-5.8,5.6-12.5,9.7-20.4,11.6c-0.7,0.2-1.4,0.4-2.1,0.6c-5.8,1.7-11.5,3.9-16.7,6.9
				c-3.6,2.1-6.7,4.8-9.3,8.1c-4.8,6.2-7.1,13.1-6.7,20.9c0.3,6.4,2.1,12.3,5.2,17.9c0.2,0.3,0.4,0.5,0.7,0.9
				c25-6.1,43.8-20.4,56.8-43.1c0,0.8,0,1.1-0.1,1.5c-0.4,2-1.1,3.8-2,5.6c-2,4-4.6,7.5-7.5,10.8c-5.1,5.7-10.9,10.7-16.9,15.3
				c-7.3,5.6-15,10.7-23,15.3c-0.6,0.3-1.3,0.6-1.7,1.3c1.1,1,2.1,1.9,3.2,2.9c4.1,3.4,8.5,6.2,13.6,7.9c4.8,1.6,9.7,2,14.7,1.1
				c6.1-1.1,11.3-3.7,16-7.7c4.5-3.9,8-8.5,11-13.6c1.7-2.9,3.3-6,4.4-9.2c2.3-6.7,3.7-13.7,4.1-20.8
				C954.9,725.7,954,716.9,951.7,708.2z"/>
		</g>
	</g>
	<path class="st2" d="M1240.7,715.1v34.5c85.8,0,155.4,69.7,155.4,155.4h34.5C1430.7,800.1,1345.6,715.1,1240.7,715.1z
		 M1240.7,775.5v34.5c52.4,0,95,42.6,95,95h34.5C1370.3,833.6,1312.2,775.5,1240.7,775.5z M1266.6,853.2
		c-14.3,0-25.9,11.6-25.9,25.9c0,14.3,11.6,25.9,25.9,25.9c14.3,0,25.9-11.6,25.9-25.9C1292.5,864.8,1280.9,853.2,1266.6,853.2z"/>
	<g>
		<circle class="st2" cx="1210.9" cy="1465.3" r="27.2"/>
		<path class="st2" d="M1231.6,1646.5h-41.5c-1.1,0-1.9-0.9-1.9-1.9v-132.1c0-1.1,0.9-1.9,1.9-1.9h41.5c1.1,0,1.9,0.9,1.9,1.9v132.1
			C1233.5,1645.7,1232.7,1646.5,1231.6,1646.5z"/>
		<path class="st2" d="M1387.6,1560.4v77c0,5-4.1,9.1-9.1,9.1h-27.2c-5,0-9.1-4.1-9.1-9.1V1574c0-12.5-10.2-22.7-22.7-22.7
			s-22.7,10.2-22.7,22.7v63.4c0,5-4.1,9.1-9.1,9.1h-27.2c-5,0-9.1-4.1-9.1-9.1v-117.8c0-5,4.1-9.1,9.1-9.1h27.2c5,0,9.1,4.1,9.1,9.1
			v5.8c9.1-11.7,24.1-19.4,40.8-19.4C1362.8,1506,1387.6,1524.2,1387.6,1560.4z"/>
	</g>
	<g>
		<path class="st2" d="M604.3,1438.1H496.5c-27.8,0-50.3,22.5-50.3,50.3v107.8c0,27.8,22.5,50.3,50.3,50.3h107.8
			c27.8,0,50.3-22.5,50.3-50.3v-107.8C654.6,1460.6,632.1,1438.1,604.3,1438.1z M636.7,1592.6c0,19.8-16.1,35.9-35.9,35.9H500.1
			c-19.8,0-35.9-16.1-35.9-35.9V1492c0-19.8,16.1-35.9,35.9-35.9h100.6c19.8,0,35.9,16.1,35.9,35.9V1592.6z"/>
		<path class="st2" d="M550.4,1488.4c-29.8,0-53.9,24.1-53.9,53.9c0,29.8,24.1,53.9,53.9,53.9s53.9-24.1,53.9-53.9
			C604.3,1512.5,580.2,1488.4,550.4,1488.4z M550.4,1578.2c-19.8,0-35.9-16.1-35.9-35.9s16.1-35.9,35.9-35.9s35.9,16.1,35.9,35.9
			S570.2,1578.2,550.4,1578.2z"/>
		<circle class="st2" cx="607.9" cy="1484.8" r="10.8"/>
	</g>
	<path class="st2" d="M947.8,1524l80.4-86h-30.5l-63.1,67.5l-48.3-67.5h-83.5l84.5,118l-84.5,90.4h30.5l67.2-71.9l51.5,71.9h83.5
		L947.8,1524z M845.8,1460.2h29.1l117.6,164.2h-29.1L845.8,1460.2z"/>
	<g>
		<g>
			<path class="st2" d="M1678.2,1542.6c-0.1-0.3-0.3-0.7-0.5-1c-1.9,1-3.7,2-5.6,2.9c-1.8,0.8-3.7,1.6-5.6,2.3
				c-1.9,0.7-3.9,1.2-5.9,1.8c0,0.2,0,0.3,0,0.4c0.1,0.3,0.2,0.5,0.3,0.8c2.7,6.9,3.9,14,4,21.4c0.1,6.1-0.7,12.2-2.5,18.1
				c-2.7,8.8-7.1,16.8-13.5,23.4c-9.4,9.7-21,15-34.4,16.2c-1.2,0.1-2.5,0.1-3.8,0.1c0.1-0.3,0.1-0.4,0.1-0.4c0.7-0.5,1.4-1,2.1-1.6
				c14-10.7,25.1-23.8,32.9-39.6c6.5-13.1,9.8-27.1,10.1-41.7c0.2-7.2-0.5-14.3-1.7-21.3c-1.4-8-3.6-15.8-6.5-23.4
				c-0.1-0.2-0.4-0.8-0.5-1.1c-0.2-1.3-0.2-1.6-0.3-1.9c0-0.2,0-0.6,0-0.7c-0.7-6.6-1.9-13.1-3.7-19.5c-2.5-8.7-6-16.9-10.9-24.5
				c-3.4-5.2-7.3-10.1-12-14.1c-0.4-0.4-0.9-0.7-1.5-1.2c0,0.3-0.1,0.5,0,0.6c0.3,0.6,0.7,1.2,1.1,1.8c8.3,14.2,15.5,29,21.7,44.2
				c1.7,4.2,3.3,8.4,4.9,12.6l0.5,0.9c0,0.2,0.1,0.7,0.3,1.9c0.1,2.2,0.2,4.5,0.2,6.5c0.2,11.6-0.1,23.1-1.3,34.6
				c-0.5,5.3-1.2,10.6-2.1,15.9c-1.1,6.6-2.6,13.2-4.5,19.6c-2.3,7.9-5.2,15.6-9.2,22.9c-3.5,6.5-7.7,12.4-13,17.5
				c-4.9,4.7-10.4,8.4-16.7,11c-0.7,0.3-1.3,0.4-2,0.2c-8.6-1.7-16.3-5.2-23.1-10.6c-5.9-4.6-10.5-10.4-14.1-17
				c-3.8-7-6.1-14.5-6.9-22.5c-0.5-4.7-0.4-9.4,0.2-14c0.7-5.7,2.1-11.2,4.5-16.5c3.5-7.8,8.6-14.5,15-20.2
				c4.9-4.4,10.4-7.9,16.6-10.2c4-1.5,8.1-2.5,12.4-3c3.8-0.4,7.5-0.5,11.3-0.2c4.8,0.4,9.5,1.4,14,3.2c0.4,0.2,0.8,0.2,1.4,0.4
				c0.4-3.1,1-6.1,1.9-9c0.9-2.9,2.2-5.7,3.5-8.4c-0.7-0.6-1.5-0.7-2.2-0.9c-6.1-2-12.4-3-18.8-3.4c-6.8-0.4-13.6,0.1-20.3,1.4
				c-8,1.6-15.5,4.6-22.5,8.9c-6.6,4.1-12.3,9.3-17.4,15.2c-11.2,13.2-17.2,28.4-18.1,45.6c-0.3,5-0.1,9.9,0.5,14.8
				c0.9,7,2.6,13.7,5.4,20.1c4.5,10.4,11.1,19.4,19.4,27c6.2,5.7,13.2,10,21,13c7.3,2.8,14.9,4.2,22.6,4.6
				c7.2,0.4,14.4-0.1,21.5-1.5c9.6-2,18.3-5.8,26.2-11.7c6.1-4.5,11.4-10,15.9-16.1c9-12.1,13.9-25.8,14.8-40.9
				c0.4-6.2,0.1-12.3-1-18.4C1681.5,1552.6,1680.1,1547.5,1678.2,1542.6z"/>
			<path class="st2" d="M1713.4,1461.1c-1.6-5.9-3.8-11.5-6.8-16.7c-0.4-0.7-0.9-1.5-1.5-2.4c-0.4,0.8-0.8,1.4-1.1,2
				c-2.1,4-4.7,7.6-8,10.7c-4.9,4.7-10.6,8.2-17.3,9.8c-0.6,0.1-1.2,0.3-1.7,0.5c-4.9,1.4-9.7,3.3-14.1,5.9c-3.1,1.8-5.7,4-7.8,6.8
				c-4,5.2-6,11.1-5.7,17.7c0.2,5.4,1.8,10.4,4.4,15.1c0.1,0.2,0.3,0.4,0.6,0.8c21.1-5.2,37-17.3,48-36.4c0,0.6,0,1-0.1,1.3
				c-0.4,1.7-0.9,3.2-1.7,4.8c-1.6,3.4-3.9,6.3-6.3,9.1c-4.3,4.8-9.2,9-14.3,12.9c-6.2,4.7-12.7,9-19.5,12.9
				c-0.5,0.3-1.1,0.5-1.5,1.1c0.9,0.8,1.8,1.6,2.7,2.4c3.5,2.9,7.2,5.2,11.5,6.7c4.1,1.3,8.2,1.7,12.4,1c5.1-0.9,9.6-3.2,13.5-6.5
				c3.8-3.3,6.8-7.2,9.3-11.5c1.5-2.5,2.8-5,3.8-7.8c2-5.7,3.1-11.6,3.5-17.6C1716.1,1475.9,1715.4,1468.4,1713.4,1461.1z"/>
		</g>
	</g>
	<path class="st2" d="M1864,1437.5v38c94.3,0,171,76.7,171,171h38C2073,1531.1,1979.4,1437.5,1864,1437.5z M1864,1504v38
		c57.7,0,104.5,46.8,104.5,104.5h38C2006.5,1567.9,1942.7,1504,1864,1504z M1892.5,1589.5c-15.7,0-28.5,12.8-28.5,28.5
		s12.8,28.5,28.5,28.5s28.5-12.8,28.5-28.5S1908.2,1589.5,1892.5,1589.5z"/>
</g>
</svg>
